HIERARCHY
ROOT Hips
{
	OFFSET	0.00	0.00	0.00
	CHANNELS 6 Xposition Yposition Zposition Zrotation Xrotation Yrotation
	JOINT LeftUpLeg
	{
		OFFSET	 0.126116	-0.014019	-0.065224
		CHANNELS 3 Zrotation Xrotation Yrotation
		JOINT LeftLeg
		{
			OFFSET	 0.000000	 0.000000	 0.569914
			CHANNELS 3 Zrotation Xrotation Yrotation
			JOINT LeftFoot
			{
				OFFSET	 0.000000	 0.000000	 0.544423
				CHANNELS 3 Zrotation Xrotation Yrotation
				JOINT LeftToeBase
				{
					OFFSET	 0.000000	 0.000000	 0.207117
					CHANNELS 3 Zrotation Xrotation Yrotation
					End Site
					{
						OFFSET	 0.000000	 0.000000	 0.207117
					}
				}
			}
		}
	}
	JOINT RightUpLeg
	{
		OFFSET	-0.124023	-0.008373	-0.065224
		CHANNELS 3 Zrotation Xrotation Yrotation
		JOINT RightLeg
		{
			OFFSET	 0.000000	 0.000000	 0.570047
			CHANNELS 3 Zrotation Xrotation Yrotation
			JOINT RightFoot
			{
				OFFSET	 0.000000	 0.000000	 0.544354
				CHANNELS 3 Zrotation Xrotation Yrotation
				JOINT RightToeBase
				{
					OFFSET	 0.000000	 0.000000	 0.207540
					CHANNELS 3 Zrotation Xrotation Yrotation
					End Site
					{
						OFFSET	 0.000000	 0.000000	 0.207540
					}
				}
			}
		}
	}
	JOINT Spine
	{
		OFFSET	 0.000184	-0.007763	 0.117403
		CHANNELS 3 Zrotation Xrotation Yrotation
		JOINT Spine1
		{
			OFFSET	 0.000000	 0.000000	 0.137269
			CHANNELS 3 Zrotation Xrotation Yrotation
			JOINT Spine2
			{
				OFFSET	 0.000000	 0.000000	 0.156879
				CHANNELS 3 Zrotation Xrotation Yrotation
				JOINT LeftShoulder
				{
					OFFSET	 0.080501	-0.002496	 0.160144
					CHANNELS 3 Zrotation Xrotation Yrotation
					JOINT LeftArm
					{
						OFFSET	 0.000000	 0.000000	 0.164363
						CHANNELS 3 Zrotation Xrotation Yrotation
						JOINT LeftForeArm
						{
							OFFSET	 0.000000	 0.000000	 0.364576
							CHANNELS 3 Zrotation Xrotation Yrotation
							JOINT LeftHand
							{
								OFFSET	 0.000000	 0.000000	 0.360812
								CHANNELS 3 Zrotation Xrotation Yrotation
								JOINT LeftHandIndex1
								{
									OFFSET	 0.000000	 0.000000	 0.086006
									CHANNELS 3 Zrotation Xrotation Yrotation
									JOINT LeftHandIndex2
									{
										OFFSET	 0.000000	 0.000000	 0.047236
										CHANNELS 3 Zrotation Xrotation Yrotation
										JOINT LeftHandIndex3
										{
											OFFSET	-0.004284	-0.000551	 0.038166
											CHANNELS 3 Zrotation Xrotation Yrotation
											End Site
											{
												OFFSET	-0.004284	-0.000551	 0.038166
											}
										}
									}
								}
							}
						}
					}
				}
				JOINT Neck
				{
					OFFSET	 0.000000	 0.000000	 0.176489
					CHANNELS 3 Zrotation Xrotation Yrotation
					JOINT Head
					{
						OFFSET	 0.000000	-0.001747	 0.077940
						CHANNELS 3 Zrotation Xrotation Yrotation
						End Site
						{
							OFFSET	 0.000000	-0.001747	 0.077940
						}
					}
				}
				JOINT RightShoulder
				{
					OFFSET	-0.080363	 0.000306	 0.159706
					CHANNELS 3 Zrotation Xrotation Yrotation
					JOINT RightArm
					{
						OFFSET	 0.000000	 0.000000	 0.164196
						CHANNELS 3 Zrotation Xrotation Yrotation
						JOINT RightForeArm
						{
							OFFSET	 0.000000	 0.000000	 0.365611
							CHANNELS 3 Zrotation Xrotation Yrotation
							JOINT RightHand
							{
								OFFSET	 0.000000	 0.000000	 0.360648
								CHANNELS 3 Zrotation Xrotation Yrotation
								JOINT RightHandIndex1
								{
									OFFSET	 0.000000	 0.000000	 0.069977
									CHANNELS 3 Zrotation Xrotation Yrotation
									JOINT RightHandIndex2
									{
										OFFSET	 0.000000	 0.000000	 0.052305
										CHANNELS 3 Zrotation Xrotation Yrotation
										JOINT RightHandIndex3
										{
											OFFSET	 0.009002	-0.000782	 0.042196
											CHANNELS 3 Zrotation Xrotation Yrotation
											End Site
											{
												OFFSET	 0.009002	-0.000782	 0.042196
											}
										}
									}
								}
							}
						}
					}
				}
			}
		}
	}
}
MOTION
Frames:    6
Frame Time: 0.03333334
-0.054826	-2.224750	 1.159237	 3.916267	-1.684718	-2.809188	 16.076050	-16.881280	-174.121900	 0.192127	-51.002690	-0.115803	 104.096900	 82.326710	-108.274300	-2.371548	 31.251190	-0.061710	-17.610770	-34.158970	-175.367300	 13.085940	-61.989160	 12.280550	 9.885084	 74.452770	-3.804726	 2.357758	 33.177800	 0.107358	-3.505395	 9.309901	 2.239854	-1.875793	 0.958382	-1.510584	 2.781499	-0.161528	 1.449935	-93.748020	 58.845230	 175.808100	 12.717890	 33.371970	-37.014530	-18.467140	 2.115445	-6.554359	-2.035885	-3.021268	-5.852502	-4.869414	 19.244820	-2.787462	-3.891330	 21.347180	 2.212713	-4.807863	 5.550165	 0.146699	-0.132007	-5.008049	 0.155502	 0.540101	 2.985981	 2.996171	 89.839290	 61.567960	-179.864100	-19.314560	 49.207250	 17.032660	 16.819530	 2.088014	 6.587958	-2.145698	 10.634960	 0.276732	 6.305739	 26.109010	-0.579700	 1.712255	 46.063430	-6.838095	 0.327310	 25.142140	 3.670337
-0.055834	-2.247776	 1.159418	 4.483368	-1.382978	-2.774152	 15.372880	-15.890070	-174.517500	 0.747377	-50.582790	 0.260161	 109.364100	 82.417340	-113.759500	-2.370537	 31.423910	-0.065602	-19.146980	-35.936380	-176.264500	 12.925820	-59.583210	 11.857740	 9.374947	 76.652740	-3.455806	 2.358334	 33.094410	 0.105415	-3.439208	 9.125221	 2.155444	-1.984180	 1.001426	-1.547001	 2.799524	-0.385440	 1.516695	-93.853360	 58.933060	 175.573400	 12.227520	 32.044770	-37.684990	-19.049040	 2.109082	-6.536131	-1.709489	-3.122211	-6.780985	-4.869262	 19.244330	-2.786477	-3.887384	 21.397800	 2.208705	-4.808259	 5.545542	 0.146964	-0.100845	-5.045360	 0.171424	 0.655036	 2.853695	 2.886225	 89.805670	 61.615550	-179.943900	-19.213860	 49.858250	 15.844620	 16.525750	 2.075211	 6.570581	-2.046020	 10.980290	 0.126759	 6.298927	 25.413970	-0.558411	 1.810514	 45.299630	-6.926163	 0.444514	 24.633710	 3.609914
-0.056832	-2.269949	 1.158890	 5.031066	-1.089244	-2.750570	 14.572410	-14.991600	-174.918700	 1.132045	-50.242700	 0.599130	 114.676700	 82.449290	-119.269200	-2.369557	 31.587710	-0.069305	-20.624290	-37.544070	-177.212600	 12.659160	-57.020320	 11.315990	 9.130409	 78.582800	-3.486001	 2.358886	 33.012650	 0.103515	-3.351122	 8.946366	 2.071565	-2.071036	 1.065284	-1.563339	 2.809149	-0.615039	 1.573666	-93.954640	 59.014080	 175.347100	 11.707100	 30.734220	-38.321430	-19.529680	 2.101106	-6.517385	-1.434747	-3.188688	-7.677678	-4.869016	 19.249380	-2.786542	-3.883325	 21.449830	 2.204578	-4.808273	 5.545339	 0.146975	-0.070492	-5.081562	 0.186890	 0.757448	 2.726047	 2.777149	 89.773750	 61.656050	 179.980300	-19.073720	 50.442990	 14.703210	 16.305100	 2.062019	 6.556964	-2.026892	 11.324780	-0.015408	 6.292603	 24.719390	-0.536141	 1.906532	 44.530100	-7.011855	 0.559543	 24.130060	 3.551443
-0.057808	-2.292423	 1.157744	 5.506250	-0.638995	-2.764427	 13.929530	-14.235450	-175.230300	 1.355613	-49.936730	 0.767575	 120.071700	 82.455150	-124.709100	-2.368749	 31.722200	-0.072362	-22.252920	-39.207770	-178.345200	 12.653570	-54.089050	 10.930640	 7.262420	 80.145970	-1.993518	 2.358982	 32.998230	 0.103181	-3.109695	 8.621724	 1.950132	-2.156290	 1.132990	-1.498836	 2.806664	-0.849045	 1.590098	-94.072810	 59.018250	 175.094400	 11.015840	 29.393820	-38.868280	-19.655030	 2.088645	-6.497537	-1.030901	-3.388733	-8.107475	-4.865352	 19.349010	-2.794263	-3.876632	 21.535440	 2.197771	-4.805450	 5.578622	 0.145030	-0.046161	-5.099718	 0.220980	 0.825868	 2.613593	 2.712787	 89.728890	 61.710300	 179.873000	-18.903290	 51.006870	 13.578760	 15.887460	 2.044971	 6.537441	-2.151851	 11.649450	-0.206815	 6.280726	 23.865090	-0.547225	 2.006135	 43.706560	-7.100341	 0.736573	 23.346000	 3.463077
-0.058927	-2.316242	 1.155923	 5.989305	-0.170819	-2.792881	 13.264640	-13.442220	-175.555300	 1.578704	-49.643860	 0.934299	 126.044700	 82.395920	-130.717800	-2.367888	 31.863810	-0.075571	-23.947650	-40.730550	-179.625100	 12.505500	-50.775110	 10.348320	 7.184002	 82.189780	-2.520718	 2.359110	 32.978990	 0.102733	-2.826849	 8.281137	 1.825945	-2.236125	 1.211032	-1.419258	 2.795673	-1.095349	 1.598480	-94.195330	 59.019100	 174.833000	 10.289370	 28.011200	-39.425700	-19.754540	 2.074025	-6.476059	-0.654871	-3.597379	-8.517308	-4.861266	 19.458560	-2.802548	-3.869458	 21.626910	 2.190492	-4.802307	 5.615647	 0.142860	-0.021575	-5.118678	 0.256877	 0.885911	 2.497574	 2.649112	 89.681190	 61.768180	 179.758500	-18.688970	 51.560290	 12.406440	 15.429530	 2.025663	 6.518721	-2.286724	 11.987330	-0.420160	 6.267944	 22.968390	-0.560608	 2.106253	 42.851750	-7.188857	 0.921409	 22.515910	 3.372963
-0.059870	-2.342007	 1.153435	 6.231779	 0.287711	-3.000215	 12.885610	-12.381790	-175.743100	 1.724159	-49.190160	 1.038106	 133.627600	 82.091800	-138.302900	-2.366436	 32.097830	-0.080911	-24.770800	-42.176200	 179.377800	 12.362690	-47.136160	 9.695165	 6.467659	 82.070790	-2.497619	 2.360522	 32.768790	 0.097864	-2.318865	 7.852757	 1.880368	-2.294644	 1.484742	-1.327440	 2.803516	-1.375782	 1.584861	-94.303830	 58.974010	 174.608400	 9.433716	 26.634570	-40.049340	-20.165860	 2.058998	-6.448643	-0.722744	-4.012904	-8.213493	-4.851960	 19.675490	-2.812693	-3.858022	 21.772420	 2.178871	-4.795137	 5.700066	 0.137915	-0.011411	-5.158851	 0.292696	 0.914274	 2.384654	 2.642903	 89.604410	 61.862650	 179.573100	-18.342410	 52.105740	 11.227040	 14.640450	 2.000495	 6.494211	-2.526667	 12.382760	-1.006539	 6.249266	 21.874310	-0.598337	 2.201414	 42.013110	-7.272560	 1.162909	 21.413690	 3.258606
